<svg width="103" height="29" viewBox="0 0 103 29" fill="none" xmlns="http://www.w3.org/2000/svg">
<path fill-rule="evenodd" clip-rule="evenodd" d="M5.57116 0.0996748C3.46866 0.978737 1.16678 3.4528 0.441784 6.56124C-0.482591 10.4944 3.35085 12.1528 3.66804 11.609C4.03053 10.9747 2.97929 10.7572 2.76179 8.70905C2.48991 6.08092 3.71335 3.12655 5.25397 1.83967C5.54397 1.59499 5.52585 1.9303 5.52585 2.54655L5.47147 15.6509C5.47147 18.4603 5.35366 19.3394 5.14522 20.2184C4.93678 21.1066 4.60147 21.7047 4.84616 21.9403C5.13616 22.194 6.36866 21.5778 7.07553 20.5809C7.8832 19.349 8.30304 17.9032 8.28085 16.4303C8.34429 14.5634 8.33522 11.6 8.34429 9.91436C8.34429 8.37374 8.37147 3.83342 8.31709 1.10561C8.29897 0.434987 6.44116 -0.262825 5.57116 0.108737V0.0996748ZM80.0015 13.2222C79.9725 14.3978 79.701 15.5548 79.204 16.6206C78.4337 18.1794 76.8205 18.6597 76.1318 16.4212C75.7693 15.2069 75.7421 13.1678 76.014 11.464C76.2859 9.74217 77.0471 8.42811 78.3068 8.54593C79.5574 8.66374 80.1374 10.2678 80.0015 13.2222ZM59.0218 22.2666C59.0037 24.6862 58.623 26.8069 57.8074 27.4322C56.6383 28.3022 55.0887 27.6406 55.4058 25.8734C55.6868 24.3147 57.0371 22.7197 59.0308 20.7622L59.0218 22.2666ZM58.7046 13.204C58.6516 14.3823 58.3812 15.5406 57.9071 16.6206C57.1368 18.1794 55.5146 18.6597 54.8349 16.4212C54.3818 14.8897 54.4905 12.9141 54.7171 11.6634C55.0162 10.0503 55.7321 8.54593 57.0099 8.54593C58.2605 8.54593 58.8768 9.9053 58.7046 13.204ZM46.5518 13.1859C46.5288 14.3759 46.2604 15.5483 45.7633 16.6297C44.9658 18.1703 43.3799 18.6597 42.6821 16.4212C42.1837 14.8172 42.3558 12.615 42.5643 11.4369C42.8724 9.66967 43.6518 8.42811 44.8571 8.53686C46.1077 8.66374 46.7058 10.2587 46.5518 13.1859ZM102.241 14.8262C101.942 14.8262 101.797 15.1434 101.688 15.6691C101.289 17.4997 100.872 17.9166 100.329 17.9166C99.7305 17.9166 99.1868 17.0103 99.0418 15.1978C98.933 13.7659 98.9512 11.1378 99.0962 8.51874C99.1234 7.98405 98.9693 7.45842 97.5283 6.9328C96.9121 6.70624 96.0058 6.37092 95.5618 7.45842C94.6644 9.52764 94.0311 11.7016 93.6768 13.9291C93.6768 13.9834 93.6043 13.9925 93.5862 13.8747C93.5227 13.0862 93.3505 11.6453 93.3324 8.62749C93.3324 8.03843 93.2055 7.53999 92.553 7.13217C92.1271 6.8603 90.8493 6.39811 90.378 6.95092C89.9883 7.40405 89.5262 8.64561 89.0458 10.1047L88.3752 12.0984L88.3843 7.67592C88.3843 7.2228 88.0762 7.06874 87.9765 7.04155C87.4448 6.87755 86.8985 6.76526 86.3452 6.70624C85.9102 6.70624 85.8015 6.95092 85.8015 7.31342C85.8015 7.35874 85.729 11.5275 85.729 14.4456V14.8625C85.4843 16.2037 84.6958 18.0253 83.8349 18.0253C82.974 18.0253 82.5662 17.264 82.5662 13.784C82.5662 11.754 82.6296 10.875 82.6568 9.40686C82.6749 8.55499 82.7112 7.91155 82.7112 7.76655C82.7021 7.31342 81.9227 7.08686 81.5602 6.99624C81.1977 6.91467 80.8715 6.87842 80.6268 6.89655C80.2643 6.91467 80.0196 7.14124 80.0196 7.45842V7.95686C79.6285 7.33825 79.0462 6.86415 78.3612 6.60655C77.0562 6.21686 75.6968 6.56124 74.6727 7.99311C73.7888 9.25755 73.2685 10.7402 73.1684 12.2797C73.0234 13.639 73.0777 15.0075 73.3224 16.1765C73.0233 17.4816 72.4524 18.0253 71.8362 18.0253C70.939 18.0253 70.2955 16.5572 70.368 14.0378C70.4224 12.3703 70.7487 11.2012 71.1112 9.51561C71.2652 8.79061 71.1474 8.42811 70.8302 8.06561C70.5402 7.7303 69.924 7.55811 69.0268 7.76655C68.3924 7.91155 67.4862 8.07467 66.6705 8.19249C66.6705 8.19249 66.7158 8.00217 66.7612 7.64874C66.9696 5.80905 64.9668 5.95405 64.3233 6.54311C63.9427 6.89655 63.689 7.30436 63.5802 8.05655C63.4262 9.23467 64.3959 9.78749 64.3959 9.78749C63.7731 12.1398 62.7291 14.3597 61.3146 16.3397V15.7053C61.3055 12.6603 61.3418 10.2678 61.3599 9.40686C61.378 8.55499 61.4143 7.92967 61.4143 7.77561C61.4143 7.44936 61.2149 7.32249 60.8162 7.16842C60.4537 7.02342 60.0368 6.9328 59.6018 6.89655C59.058 6.85124 58.7227 7.14124 58.7318 7.48561V7.95686C58.3389 7.33627 57.753 6.86186 57.0643 6.60655C55.7593 6.21686 54.3999 6.56124 53.3758 7.99311C52.5236 9.2702 52.0062 10.7412 51.8715 12.2706C51.7355 13.6934 51.7537 14.8987 51.953 15.9319C51.7446 16.9559 51.1465 18.0162 50.4758 18.0162C49.6149 18.0162 49.1165 17.264 49.1165 13.784C49.1165 11.754 49.1799 10.875 49.2071 9.40686C49.2252 8.55499 49.2615 7.91155 49.2615 7.76655C49.2615 7.31342 48.473 7.08686 48.1105 6.99624C47.7299 6.90561 47.3946 6.87842 47.1499 6.90561C46.8146 6.92374 46.579 7.2228 46.579 7.44936V7.95686C46.186 7.33627 45.6002 6.86186 44.9115 6.60655C43.6065 6.21686 42.2562 6.5703 41.223 7.99311C40.5434 8.92655 39.9996 9.95967 39.7187 12.2525C39.6426 12.8657 39.6062 13.4833 39.6099 14.1012C39.338 15.7415 38.1508 17.6356 37.1812 17.6356C36.6102 17.6356 36.0665 16.539 36.0665 14.1919C36.0665 11.0653 36.2658 6.61561 36.293 6.18967L37.7612 6.16249C38.3774 6.16249 38.9302 6.17155 39.7458 6.12624C40.1537 6.10811 40.5433 4.63999 40.1265 4.45874C39.9362 4.37717 38.5858 4.30467 38.0421 4.29561C37.589 4.28655 36.3383 4.19592 36.3383 4.19592C36.3383 4.19592 36.4562 1.24155 36.4833 0.933425C36.5015 0.66155 36.1662 0.534675 35.9668 0.453112C35.5195 0.273072 35.0548 0.139454 34.5802 0.0543622C33.8915 -0.0815753 33.5834 0.054362 33.5199 0.634362C33.4293 1.51342 33.384 4.09624 33.384 4.09624C32.8765 4.09624 31.1455 3.99655 30.6471 3.99655C30.1758 3.99655 29.6683 6.00842 30.3208 6.03561L33.2208 6.11717L33.1937 12.035V12.4609C32.7133 14.935 31.0458 16.2672 31.0458 16.2672C31.4083 14.6359 30.6652 13.4125 29.3512 12.3703C28.8618 11.9897 27.9012 11.2647 26.8227 10.4672C26.8227 10.4672 27.448 9.85092 28.0008 8.61842C28.3905 7.74843 28.4087 6.75155 27.448 6.53405C25.8621 6.16249 24.548 7.32249 24.1583 8.57311C24.0063 8.97795 23.9681 9.41674 24.048 9.84175C24.1279 10.2668 24.3228 10.6617 24.6115 10.9837L24.7474 11.1559C24.3849 11.8447 23.8955 12.769 23.4787 13.494C22.3277 15.4878 21.4487 17.0737 20.7871 17.0737C20.2615 17.0737 20.2705 15.4697 20.2705 13.9653C20.2705 12.6694 20.3612 10.7209 20.4427 8.70905C20.4699 8.03842 20.1346 7.6578 19.5727 7.31342C19.1259 7.00435 18.6198 6.79142 18.0865 6.68811C17.4521 6.68811 15.6396 6.77874 13.9177 11.7359C13.7093 12.3612 13.2833 13.494 13.2833 13.494L13.3196 7.53999C13.3196 7.39499 13.2471 7.26811 13.0749 7.17749C12.5341 6.88998 11.9374 6.72303 11.3258 6.68811C10.9996 6.68811 10.8365 6.84217 10.8365 7.14124L10.773 16.4756C10.773 17.1825 10.7912 18.0072 10.8637 18.3697C10.9362 18.7322 11.0449 19.0222 11.1899 19.1944C11.3258 19.3756 11.489 19.5025 11.7518 19.5569C12.0055 19.6112 13.3649 19.7834 13.4374 19.2669C13.528 18.6416 13.528 17.9709 14.244 15.4606C15.3496 11.5547 16.7996 9.64249 17.4883 8.97186C17.6062 8.84499 17.7421 8.84499 17.733 9.0353L17.5337 13.8566C17.3524 18.7231 18.2405 19.6203 19.5002 19.6203C20.4699 19.6203 21.8383 18.6597 23.3065 16.2309L25.7533 12.1528L27.1852 13.4759C28.3452 14.5634 28.7258 15.6147 28.4721 16.6025C28.2818 17.3547 27.5477 18.1431 26.2608 17.3819C25.8802 17.1553 25.7171 16.9831 25.3455 16.7384C25.1371 16.6025 24.829 16.5572 24.6387 16.7022C24.1583 17.0647 23.8774 17.5359 23.7233 18.1069C23.5693 18.6597 24.1312 18.9587 24.7112 19.2125C25.2096 19.4391 26.288 19.6384 26.9768 19.6656C29.6412 19.7562 31.7799 18.3787 33.2662 14.8262C33.538 17.8894 34.6708 19.6294 36.6374 19.6294C37.9515 19.6294 39.2746 17.9256 39.8546 16.2581C40.0177 16.9378 40.2624 17.5269 40.5796 18.0344C42.1021 20.4359 45.0474 19.9103 46.5246 17.8712C46.9777 17.2459 47.0502 17.0194 47.0502 17.0194C47.0945 17.7055 47.3912 18.3509 47.8832 18.8312C48.3752 19.3115 49.0276 19.5926 49.7146 19.6203C50.7115 19.6203 51.7355 19.149 52.4605 17.5269C52.5421 17.7081 52.6418 17.8712 52.7324 18.0344C54.2549 20.4359 57.2002 19.9103 58.6774 17.8712L58.8587 17.6175L58.904 18.8862L57.5446 20.1278C55.2608 22.2122 53.5208 23.7981 53.394 25.6469C53.2308 28.0031 55.143 28.8731 56.593 28.9909C57.3183 29.027 58.04 28.8688 58.6837 28.5326C59.3273 28.1965 59.8695 27.6946 60.2543 27.0787C60.9612 26.0366 61.4324 23.789 61.3962 21.5687L61.3418 18.3425C63.5126 15.8322 65.1802 12.9278 66.2537 9.78749C66.2537 9.78749 67.0965 9.79655 67.9937 9.74217C68.2837 9.72405 68.3652 9.77843 68.3109 9.98686C68.2474 10.2406 67.178 14.3731 68.1568 17.1281C68.8274 19.0131 70.3318 19.6203 71.238 19.6203C72.2802 19.6203 73.2862 18.8319 73.8208 17.6537L74.0293 18.0344C75.5518 20.4359 78.488 19.9103 79.9743 17.8712C80.3096 17.4181 80.4999 17.0194 80.4999 17.0194C80.8262 19.0131 82.3758 19.6294 83.264 19.6294C84.1883 19.6294 85.0765 19.2487 85.7833 17.5631C85.8105 18.3062 85.8558 18.9134 85.9283 19.1037C85.9737 19.2215 86.2365 19.3756 86.4359 19.4391C87.2787 19.7472 88.1396 19.6022 88.4658 19.5387C88.6833 19.4934 88.8555 19.3122 88.8827 18.8591C88.9462 17.6537 88.9099 15.6328 89.2724 14.1375C89.8796 11.609 90.4505 10.6303 90.7224 10.15C90.8765 9.87811 91.0487 9.8328 91.0577 10.1228C91.0668 10.7028 91.094 12.4065 91.3296 14.6994C91.5108 16.385 91.7465 17.3819 91.9187 17.69C92.4352 18.5962 93.0696 18.6416 93.5771 18.6416C93.9033 18.6416 94.5921 18.5509 94.5287 17.98C94.5015 17.6991 94.5468 15.9681 95.163 13.485C95.5527 11.8628 96.2052 10.4037 96.4408 9.85999C96.5315 9.66967 96.5768 9.82374 96.5768 9.85999C96.5224 10.9656 96.4137 14.6178 96.8668 16.6206C97.483 19.3212 99.2683 19.6294 99.8937 19.6294C101.226 19.6294 102.313 18.6144 102.676 15.9591C102.766 15.3247 102.631 14.8262 102.241 14.8262Z" fill="#262626"/>
</svg>
