<svg width="24" height="22" viewBox="0 0 24 22" fill="none" xmlns="http://www.w3.org/2000/svg">
<path d="M16.7922 2.904C18.1066 2.97667 19.339 3.56591 20.2209 4.54331C21.1028 5.52071 21.5626 6.80705 21.5002 8.122C21.5002 11.194 18.8482 13.081 16.3032 15.344C13.7912 17.587 12.4382 18.813 12.0002 19.096C11.5232 18.787 9.85717 17.273 7.69717 15.344C5.14117 13.072 2.50017 11.167 2.50017 8.122C2.43773 6.80705 2.89755 5.52071 3.77943 4.54331C4.6613 3.56591 5.89373 2.97667 7.20817 2.904C7.93631 2.88193 8.65772 3.04919 9.30188 3.3894C9.94603 3.72962 10.4909 4.23117 10.8832 4.845C11.7232 6.02 11.8632 6.608 12.0032 6.608C12.1432 6.608 12.2812 6.02 13.1132 4.842C13.5032 4.22533 14.0483 3.7218 14.6939 3.38172C15.3395 3.04164 16.063 2.87691 16.7922 2.904ZM16.7922 0.904003C15.8841 0.87493 14.9812 1.05109 14.1506 1.41935C13.3201 1.78762 12.5833 2.33851 11.9952 3.031C11.4075 2.34053 10.6723 1.79091 9.84371 1.42276C9.01515 1.0546 8.11445 0.877316 7.20817 0.904003C5.36304 0.976155 3.62155 1.77599 2.36451 3.1286C1.10747 4.48121 0.43716 6.27654 0.500165 8.122C0.500165 11.732 3.05017 13.949 5.51517 16.092C5.79817 16.338 6.08417 16.586 6.36817 16.839L7.39517 17.757C8.51521 18.8228 9.68943 19.8301 10.9132 20.775C11.2369 20.9846 11.6144 21.0962 12.0002 21.0962C12.3859 21.0962 12.7634 20.9846 13.0872 20.775C14.3499 19.8013 15.5602 18.7615 16.7132 17.66L17.6352 16.836C17.9282 16.576 18.2252 16.317 18.5202 16.062C20.8542 14.037 23.5002 11.742 23.5002 8.122C23.5632 6.27654 22.8929 4.48121 21.6358 3.1286C20.3788 1.77599 18.6373 0.976155 16.7922 0.904003Z" fill="#262626"/>
</svg>
