<svg width="157" height="12" viewBox="0 0 157 12" fill="none" xmlns="http://www.w3.org/2000/svg">
<path d="M5.34375 9.19336C4.12891 9.19336 3.0918 8.76562 2.23242 7.91016C1.37695 7.05078 0.949219 6.01367 0.949219 4.79883C0.949219 3.58398 1.37695 2.54883 2.23242 1.69336C3.0918 0.833984 4.12891 0.404297 5.34375 0.404297C6.55469 0.404297 7.58789 0.833984 8.44336 1.69336C9.30273 2.54883 9.73242 3.58398 9.73242 4.79883C9.73242 6.01367 9.30273 7.05078 8.44336 7.91016C7.58789 8.76562 6.55469 9.19336 5.34375 9.19336ZM5.34375 0.919922C4.27344 0.919922 3.35938 1.29883 2.60156 2.05664C1.84375 2.81445 1.46484 3.72852 1.46484 4.79883C1.46484 5.86914 1.84375 6.7832 2.60156 7.54102C3.35938 8.29492 4.27344 8.67188 5.34375 8.67188C6.41406 8.67188 7.32617 8.29492 8.08008 7.54102C8.83789 6.7832 9.2168 5.86914 9.2168 4.79883C9.2168 3.72852 8.83789 2.81445 8.08008 2.05664C7.32617 1.29883 6.41406 0.919922 5.34375 0.919922ZM6.93164 7.07227C6.52148 7.3418 6.03711 7.47656 5.47852 7.47656C4.72852 7.47656 4.09961 7.23242 3.5918 6.74414C3.08398 6.25586 2.83008 5.64453 2.83008 4.91016C2.83008 4.05859 3.08984 3.37891 3.60938 2.87109C4.12891 2.36328 4.80469 2.10938 5.63672 2.10938C6.10938 2.10938 6.5332 2.21289 6.9082 2.41992V3.29883C6.57227 3.01758 6.125 2.87695 5.56641 2.87695C5.01562 2.87695 4.56055 3.05273 4.20117 3.4043C3.8457 3.75586 3.66797 4.22852 3.66797 4.82227C3.66797 5.40039 3.84961 5.86328 4.21289 6.21094C4.58008 6.55859 5.04492 6.73242 5.60742 6.73242C6.12305 6.73242 6.56445 6.58008 6.93164 6.27539V7.07227ZM18.5039 2.80078C18.5039 2.54297 18.4629 2.31836 18.3809 2.12695C18.3027 1.93555 18.1934 1.77734 18.0527 1.65234C17.916 1.52344 17.7539 1.42773 17.5664 1.36523C17.3789 1.30273 17.1758 1.27148 16.957 1.27148C16.7695 1.27148 16.5859 1.29687 16.4062 1.34766C16.2266 1.39844 16.0508 1.46875 15.8789 1.55859C15.7109 1.64844 15.5469 1.75586 15.3867 1.88086C15.2305 2.00586 15.084 2.14453 14.9473 2.29688V1.26562C15.2168 1.00391 15.5176 0.804687 15.8496 0.667969C16.1855 0.527344 16.5938 0.457031 17.0742 0.457031C17.418 0.457031 17.7363 0.507813 18.0293 0.609375C18.3223 0.707031 18.5762 0.851562 18.791 1.04297C19.0059 1.23438 19.1738 1.4707 19.2949 1.75195C19.4199 2.0332 19.4824 2.35547 19.4824 2.71875C19.4824 3.05078 19.4434 3.35156 19.3652 3.62109C19.291 3.89062 19.1758 4.14453 19.0195 4.38281C18.8672 4.62109 18.6738 4.84961 18.4395 5.06836C18.2051 5.28711 17.9297 5.50977 17.6133 5.73633C17.2188 6.01758 16.8926 6.25781 16.6348 6.45703C16.3809 6.65625 16.1777 6.84375 16.0254 7.01953C15.877 7.19141 15.7715 7.36523 15.709 7.54102C15.6504 7.71289 15.6211 7.91211 15.6211 8.13867H19.8047V9H14.6191V8.58398C14.6191 8.22461 14.6582 7.9082 14.7363 7.63477C14.8145 7.36133 14.9434 7.10156 15.123 6.85547C15.3027 6.60938 15.5371 6.36328 15.8262 6.11719C16.1191 5.87109 16.4766 5.59375 16.8984 5.28516C17.2031 5.06641 17.457 4.85742 17.6602 4.6582C17.8672 4.45898 18.0332 4.25977 18.1582 4.06055C18.2832 3.86133 18.3711 3.66016 18.4219 3.45703C18.4766 3.25 18.5039 3.03125 18.5039 2.80078ZM26.4258 4.76367C26.4258 5.4668 26.3613 6.08984 26.2324 6.63281C26.1074 7.17578 25.9238 7.63477 25.6816 8.00977C25.4434 8.38086 25.1484 8.66406 24.7969 8.85938C24.4492 9.05078 24.0527 9.14648 23.6074 9.14648C23.1855 9.14648 22.8086 9.05469 22.4766 8.87109C22.1484 8.68359 21.8711 8.41211 21.6445 8.05664C21.418 7.70117 21.2461 7.26562 21.1289 6.75C21.0117 6.23047 20.9531 5.63672 20.9531 4.96875C20.9531 4.23438 21.0137 3.58594 21.1348 3.02344C21.2598 2.46094 21.4414 1.99023 21.6797 1.61133C21.918 1.22852 22.2129 0.941406 22.5645 0.75C22.9199 0.554688 23.3262 0.457031 23.7832 0.457031C25.5449 0.457031 26.4258 1.89258 26.4258 4.76367ZM25.4414 4.85742C25.4414 2.4668 24.873 1.27148 23.7363 1.27148C22.5371 1.27148 21.9375 2.48828 21.9375 4.92188C21.9375 7.19141 22.5254 8.32617 23.7012 8.32617C24.8613 8.32617 25.4414 7.16992 25.4414 4.85742ZM31.4414 2.80078C31.4414 2.54297 31.4004 2.31836 31.3184 2.12695C31.2402 1.93555 31.1309 1.77734 30.9902 1.65234C30.8535 1.52344 30.6914 1.42773 30.5039 1.36523C30.3164 1.30273 30.1133 1.27148 29.8945 1.27148C29.707 1.27148 29.5234 1.29687 29.3438 1.34766C29.1641 1.39844 28.9883 1.46875 28.8164 1.55859C28.6484 1.64844 28.4844 1.75586 28.3242 1.88086C28.168 2.00586 28.0215 2.14453 27.8848 2.29688V1.26562C28.1543 1.00391 28.4551 0.804687 28.7871 0.667969C29.123 0.527344 29.5312 0.457031 30.0117 0.457031C30.3555 0.457031 30.6738 0.507813 30.9668 0.609375C31.2598 0.707031 31.5137 0.851562 31.7285 1.04297C31.9434 1.23438 32.1113 1.4707 32.2324 1.75195C32.3574 2.0332 32.4199 2.35547 32.4199 2.71875C32.4199 3.05078 32.3809 3.35156 32.3027 3.62109C32.2285 3.89062 32.1133 4.14453 31.957 4.38281C31.8047 4.62109 31.6113 4.84961 31.377 5.06836C31.1426 5.28711 30.8672 5.50977 30.5508 5.73633C30.1562 6.01758 29.8301 6.25781 29.5723 6.45703C29.3184 6.65625 29.1152 6.84375 28.9629 7.01953C28.8145 7.19141 28.709 7.36523 28.6465 7.54102C28.5879 7.71289 28.5586 7.91211 28.5586 8.13867H32.7422V9H27.5566V8.58398C27.5566 8.22461 27.5957 7.9082 27.6738 7.63477C27.752 7.36133 27.8809 7.10156 28.0605 6.85547C28.2402 6.60938 28.4746 6.36328 28.7637 6.11719C29.0566 5.87109 29.4141 5.59375 29.8359 5.28516C30.1406 5.06641 30.3945 4.85742 30.5977 4.6582C30.8047 4.45898 30.9707 4.25977 31.0957 4.06055C31.2207 3.86133 31.3086 3.66016 31.3594 3.45703C31.4141 3.25 31.4414 3.03125 31.4414 2.80078ZM37.6289 9H36.668V1.74023C36.5938 1.81445 36.4844 1.90039 36.3398 1.99805C36.1992 2.0918 36.0391 2.18555 35.8594 2.2793C35.6836 2.37305 35.4961 2.46094 35.2969 2.54297C35.1016 2.625 34.9102 2.68945 34.7227 2.73633V1.76367C34.9336 1.70508 35.1562 1.62695 35.3906 1.5293C35.6289 1.42773 35.8613 1.31641 36.0879 1.19531C36.3184 1.07031 36.5352 0.941406 36.7383 0.808594C36.9414 0.671875 37.1172 0.539062 37.2656 0.410156H37.6289V9ZM45.2344 9H44.25V0.597656H45.2344V9ZM52.3008 9H51.3398V5.57812C51.3398 4.30469 50.875 3.66797 49.9453 3.66797C49.4648 3.66797 49.0664 3.84961 48.75 4.21289C48.4375 4.57227 48.2812 5.02734 48.2812 5.57812V9H47.3203V3H48.2812V3.99609H48.3047C48.7578 3.23828 49.4141 2.85938 50.2734 2.85938C50.9297 2.85938 51.4316 3.07227 51.7793 3.49805C52.127 3.91992 52.3008 4.53125 52.3008 5.33203V9ZM53.7539 8.7832V7.75195C54.2773 8.13867 54.8535 8.33203 55.4824 8.33203C56.3262 8.33203 56.748 8.05078 56.748 7.48828C56.748 7.32812 56.7109 7.19336 56.6367 7.08398C56.5664 6.9707 56.4688 6.87109 56.3438 6.78516C56.2227 6.69922 56.0781 6.62305 55.9102 6.55664C55.7461 6.48633 55.5684 6.41406 55.377 6.33984C55.1113 6.23438 54.877 6.12891 54.6738 6.02344C54.4746 5.91406 54.3066 5.79297 54.1699 5.66016C54.0371 5.52344 53.9355 5.36914 53.8652 5.19727C53.7988 5.02539 53.7656 4.82422 53.7656 4.59375C53.7656 4.3125 53.8301 4.06445 53.959 3.84961C54.0879 3.63086 54.2598 3.44922 54.4746 3.30469C54.6895 3.15625 54.9336 3.04492 55.207 2.9707C55.4844 2.89648 55.7695 2.85938 56.0625 2.85938C56.582 2.85938 57.0469 2.94922 57.457 3.12891V4.10156C57.0156 3.8125 56.5078 3.66797 55.9336 3.66797C55.7539 3.66797 55.5918 3.68945 55.4473 3.73242C55.3027 3.77148 55.1777 3.82812 55.0723 3.90234C54.9707 3.97656 54.8906 4.06641 54.832 4.17188C54.7773 4.27344 54.75 4.38672 54.75 4.51172C54.75 4.66797 54.7773 4.79883 54.832 4.9043C54.8906 5.00977 54.9746 5.10352 55.084 5.18555C55.1934 5.26758 55.3262 5.3418 55.4824 5.4082C55.6387 5.47461 55.8164 5.54688 56.0156 5.625C56.2812 5.72656 56.5195 5.83203 56.7305 5.94141C56.9414 6.04688 57.1211 6.16797 57.2695 6.30469C57.418 6.4375 57.5312 6.5918 57.6094 6.76758C57.6914 6.94336 57.7324 7.15234 57.7324 7.39453C57.7324 7.69141 57.666 7.94922 57.5332 8.16797C57.4043 8.38672 57.2305 8.56836 57.0117 8.71289C56.793 8.85742 56.541 8.96484 56.2559 9.03516C55.9707 9.10547 55.6719 9.14062 55.3594 9.14062C54.7422 9.14062 54.207 9.02148 53.7539 8.7832ZM61.998 8.94141C61.7715 9.06641 61.4727 9.12891 61.1016 9.12891C60.0508 9.12891 59.5254 8.54297 59.5254 7.37109V3.82031H58.4941V3H59.5254V1.53516L60.4863 1.22461V3H61.998V3.82031H60.4863V7.20117C60.4863 7.60352 60.5547 7.89062 60.6914 8.0625C60.8281 8.23438 61.0547 8.32031 61.3711 8.32031C61.6133 8.32031 61.8223 8.25391 61.998 8.12109V8.94141ZM67.5762 9H66.6152V8.0625H66.5918C66.1738 8.78125 65.5586 9.14062 64.7461 9.14062C64.1484 9.14062 63.6797 8.98242 63.3398 8.66602C63.0039 8.34961 62.8359 7.92969 62.8359 7.40625C62.8359 6.28516 63.4961 5.63281 64.8164 5.44922L66.6152 5.19727C66.6152 4.17773 66.2031 3.66797 65.3789 3.66797C64.6562 3.66797 64.0039 3.91406 63.4219 4.40625V3.42188C64.0117 3.04688 64.6914 2.85938 65.4609 2.85938C66.8711 2.85938 67.5762 3.60547 67.5762 5.09766V9ZM66.6152 5.96484L65.168 6.16406C64.7227 6.22656 64.3867 6.33789 64.1602 6.49805C63.9336 6.6543 63.8203 6.93359 63.8203 7.33594C63.8203 7.62891 63.9238 7.86914 64.1309 8.05664C64.3418 8.24023 64.6211 8.33203 64.9688 8.33203C65.4453 8.33203 65.8379 8.16602 66.1465 7.83398C66.459 7.49805 66.6152 7.07422 66.6152 6.5625V5.96484ZM74.5078 8.51953C74.5078 10.7227 73.4531 11.8242 71.3438 11.8242C70.6016 11.8242 69.9531 11.6836 69.3984 11.4023V10.4414C70.0742 10.8164 70.7188 11.0039 71.332 11.0039C72.8086 11.0039 73.5469 10.2188 73.5469 8.64844V7.99219H73.5234C73.0664 8.75781 72.3789 9.14062 71.4609 9.14062C70.7148 9.14062 70.1133 8.875 69.6562 8.34375C69.2031 7.80859 68.9766 7.0918 68.9766 6.19336C68.9766 5.17383 69.2207 4.36328 69.709 3.76172C70.2012 3.16016 70.873 2.85938 71.7246 2.85938C72.5332 2.85938 73.1328 3.18359 73.5234 3.83203H73.5469V3H74.5078V8.51953ZM73.5469 6.28711V5.40234C73.5469 4.92578 73.3848 4.51758 73.0605 4.17773C72.7402 3.83789 72.3398 3.66797 71.8594 3.66797C71.2656 3.66797 70.8008 3.88477 70.4648 4.31836C70.1289 4.74805 69.9609 5.35156 69.9609 6.12891C69.9609 6.79688 70.1211 7.33203 70.4414 7.73438C70.7656 8.13281 71.1934 8.33203 71.7246 8.33203C72.2637 8.33203 72.7012 8.14062 73.0371 7.75781C73.377 7.375 73.5469 6.88477 73.5469 6.28711ZM79.582 3.97266C79.4141 3.84375 79.1719 3.7793 78.8555 3.7793C78.4453 3.7793 78.1016 3.97266 77.8242 4.35938C77.5508 4.74609 77.4141 5.27344 77.4141 5.94141V9H76.4531V3H77.4141V4.23633H77.4375C77.5742 3.81445 77.7832 3.48633 78.0645 3.25195C78.3457 3.01367 78.6602 2.89453 79.0078 2.89453C79.2578 2.89453 79.4492 2.92188 79.582 2.97656V3.97266ZM84.9199 9H83.959V8.0625H83.9355C83.5176 8.78125 82.9023 9.14062 82.0898 9.14062C81.4922 9.14062 81.0234 8.98242 80.6836 8.66602C80.3477 8.34961 80.1797 7.92969 80.1797 7.40625C80.1797 6.28516 80.8398 5.63281 82.1602 5.44922L83.959 5.19727C83.959 4.17773 83.5469 3.66797 82.7227 3.66797C82 3.66797 81.3477 3.91406 80.7656 4.40625V3.42188C81.3555 3.04688 82.0352 2.85938 82.8047 2.85938C84.2148 2.85938 84.9199 3.60547 84.9199 5.09766V9ZM83.959 5.96484L82.5117 6.16406C82.0664 6.22656 81.7305 6.33789 81.5039 6.49805C81.2773 6.6543 81.1641 6.93359 81.1641 7.33594C81.1641 7.62891 81.2676 7.86914 81.4746 8.05664C81.6855 8.24023 81.9648 8.33203 82.3125 8.33203C82.7891 8.33203 83.1816 8.16602 83.4902 7.83398C83.8027 7.49805 83.959 7.07422 83.959 6.5625V5.96484ZM95.25 9H94.2891V5.55469C94.2891 4.89062 94.1855 4.41016 93.9785 4.11328C93.7754 3.81641 93.4316 3.66797 92.9473 3.66797C92.5371 3.66797 92.1875 3.85547 91.8984 4.23047C91.6133 4.60547 91.4707 5.05469 91.4707 5.57812V9H90.5098V5.4375C90.5098 4.25781 90.0547 3.66797 89.1445 3.66797C88.7227 3.66797 88.375 3.8457 88.1016 4.20117C87.8281 4.55273 87.6914 5.01172 87.6914 5.57812V9H86.7305V3H87.6914V3.94922H87.7148C88.1406 3.22266 88.7617 2.85938 89.5781 2.85938C89.9883 2.85938 90.3457 2.97461 90.6504 3.20508C90.9551 3.43164 91.1641 3.73047 91.2773 4.10156C91.7227 3.27344 92.3867 2.85938 93.2695 2.85938C94.5898 2.85938 95.25 3.67383 95.25 5.30273V9ZM104.754 1.48828H101.473V4.39453H104.508V5.2793H101.473V9H100.488V0.597656H104.754V1.48828ZM109.348 3.97266C109.18 3.84375 108.938 3.7793 108.621 3.7793C108.211 3.7793 107.867 3.97266 107.59 4.35938C107.316 4.74609 107.18 5.27344 107.18 5.94141V9H106.219V3H107.18V4.23633H107.203C107.34 3.81445 107.549 3.48633 107.83 3.25195C108.111 3.01367 108.426 2.89453 108.773 2.89453C109.023 2.89453 109.215 2.92188 109.348 2.97656V3.97266ZM112.898 9.14062C112.012 9.14062 111.303 8.86133 110.771 8.30273C110.244 7.74023 109.98 6.99609 109.98 6.07031C109.98 5.0625 110.256 4.27539 110.807 3.70898C111.357 3.14258 112.102 2.85938 113.039 2.85938C113.934 2.85938 114.631 3.13477 115.131 3.68555C115.635 4.23633 115.887 5 115.887 5.97656C115.887 6.93359 115.615 7.70117 115.072 8.2793C114.533 8.85352 113.809 9.14062 112.898 9.14062ZM112.969 3.66797C112.352 3.66797 111.863 3.87891 111.504 4.30078C111.145 4.71875 110.965 5.29688 110.965 6.03516C110.965 6.74609 111.146 7.30664 111.51 7.7168C111.873 8.12695 112.359 8.33203 112.969 8.33203C113.59 8.33203 114.066 8.13086 114.398 7.72852C114.734 7.32617 114.902 6.75391 114.902 6.01172C114.902 5.26172 114.734 4.68359 114.398 4.27734C114.066 3.87109 113.59 3.66797 112.969 3.66797ZM125.941 9H124.98V5.55469C124.98 4.89062 124.877 4.41016 124.67 4.11328C124.467 3.81641 124.123 3.66797 123.639 3.66797C123.229 3.66797 122.879 3.85547 122.59 4.23047C122.305 4.60547 122.162 5.05469 122.162 5.57812V9H121.201V5.4375C121.201 4.25781 120.746 3.66797 119.836 3.66797C119.414 3.66797 119.066 3.8457 118.793 4.20117C118.52 4.55273 118.383 5.01172 118.383 5.57812V9H117.422V3H118.383V3.94922H118.406C118.832 3.22266 119.453 2.85938 120.27 2.85938C120.68 2.85938 121.037 2.97461 121.342 3.20508C121.646 3.43164 121.855 3.73047 121.969 4.10156C122.414 3.27344 123.078 2.85938 123.961 2.85938C125.281 2.85938 125.941 3.67383 125.941 5.30273V9ZM139.746 9H138.768V3.36328C138.768 2.91797 138.795 2.37305 138.85 1.72852H138.826C138.732 2.10742 138.648 2.37891 138.574 2.54297L135.703 9H135.223L132.357 2.58984C132.275 2.40234 132.191 2.11523 132.105 1.72852H132.082C132.113 2.06445 132.129 2.61328 132.129 3.375V9H131.18V0.597656H132.48L135.059 6.45703C135.258 6.90625 135.387 7.24219 135.445 7.46484H135.48C135.648 7.00391 135.783 6.66016 135.885 6.43359L138.516 0.597656H139.746V9ZM146.654 6.24023H142.418C142.434 6.9082 142.613 7.42383 142.957 7.78711C143.301 8.15039 143.773 8.33203 144.375 8.33203C145.051 8.33203 145.672 8.10938 146.238 7.66406V8.56641C145.711 8.94922 145.014 9.14062 144.146 9.14062C143.299 9.14062 142.633 8.86914 142.148 8.32617C141.664 7.7793 141.422 7.01172 141.422 6.02344C141.422 5.08984 141.686 4.33008 142.213 3.74414C142.744 3.1543 143.402 2.85938 144.188 2.85938C144.973 2.85938 145.58 3.11328 146.01 3.62109C146.439 4.12891 146.654 4.83398 146.654 5.73633V6.24023ZM145.67 5.42578C145.666 4.87109 145.531 4.43945 145.266 4.13086C145.004 3.82227 144.639 3.66797 144.17 3.66797C143.717 3.66797 143.332 3.83008 143.016 4.1543C142.699 4.47852 142.504 4.90234 142.43 5.42578H145.67ZM150.896 8.94141C150.67 9.06641 150.371 9.12891 150 9.12891C148.949 9.12891 148.424 8.54297 148.424 7.37109V3.82031H147.393V3H148.424V1.53516L149.385 1.22461V3H150.896V3.82031H149.385V7.20117C149.385 7.60352 149.453 7.89062 149.59 8.0625C149.727 8.23438 149.953 8.32031 150.27 8.32031C150.512 8.32031 150.721 8.25391 150.896 8.12109V8.94141ZM156.475 9H155.514V8.0625H155.49C155.072 8.78125 154.457 9.14062 153.645 9.14062C153.047 9.14062 152.578 8.98242 152.238 8.66602C151.902 8.34961 151.734 7.92969 151.734 7.40625C151.734 6.28516 152.395 5.63281 153.715 5.44922L155.514 5.19727C155.514 4.17773 155.102 3.66797 154.277 3.66797C153.555 3.66797 152.902 3.91406 152.32 4.40625V3.42188C152.91 3.04688 153.59 2.85938 154.359 2.85938C155.77 2.85938 156.475 3.60547 156.475 5.09766V9ZM155.514 5.96484L154.066 6.16406C153.621 6.22656 153.285 6.33789 153.059 6.49805C152.832 6.6543 152.719 6.93359 152.719 7.33594C152.719 7.62891 152.822 7.86914 153.029 8.05664C153.24 8.24023 153.52 8.33203 153.867 8.33203C154.344 8.33203 154.736 8.16602 155.045 7.83398C155.357 7.49805 155.514 7.07422 155.514 6.5625V5.96484Z" fill="#8E8E8E"/>
</svg>
